PathFileType	4	(X/Y/Z)	c:/Users/goper/Files/vsCode/490R/osim_files/C17/C17_SSWS_03.trc
DataRate	CameraRate	NumFrames	NumMarkers	Units                	OrigDataRate	OrigDataStartFrame	OrigNumFrames
250.00	250.00	6	36	mm	250.0	1013	2025
                Frame#	Time	LPSIS			LASIS			LTH1			LTH2			LTH3			LTH4			LLFE			LMFE			LSH1			LSH2			LSH3			LSH4			LLMAL			LMMAL			LCAL			LMTP5			LTOE			LMTP1			RPSIS			RASIS			RTH1			RTH2			RTH3			RTH4			RLFE			RMFE			RSH1			RSH2			RSH3			RSH4			RLMAL			RMMAL			RCAL			RMTP1			RTOE			RMTP5		
		X1	Y1	Z1	X2	Y2	Z2	X3	Y3	Z3	X4	Y4	Z4	X5	Y5	Z5	X6	Y6	Z6	X7	Y7	Z7	X8	Y8	Z8	X9	Y9	Z9	X10	Y10	Z10	X11	Y11	Z11	X12	Y12	Z12	X13	Y13	Z13	X14	Y14	Z14	X15	Y15	Z15	X16	Y16	Z16	X17	Y17	Z17	X18	Y18	Z18	X19	Y19	Z19	X20	Y20	Z20	X21	Y21	Z21	X22	Y22	Z22	X23	Y23	Z23	X24	Y24	Z24	X25	Y25	Z25	X26	Y26	Z26	X27	Y27	Z27	X28	Y28	Z28	X29	Y29	Z29	X30	Y30	Z30	X31	Y31	Z31	X32	Y32	Z32	X33	Y33	Z33	X34	Y34	Z34	X35	Y35	Z35	X36	Y36	Z36

1013	4.04800	-485.68402	1046.47119	265.89401	-671.60767	996.88226	386.44260	-492.06744	709.71783	402.58047	-488.70624	666.95996	394.14673	-553.10907	698.54163	406.42349	-542.10986	655.98029	396.64423	-437.04672	505.93604	360.77594	-443.06659	511.37784	237.37401	-291.21869	311.76315	346.46786	-277.29758	270.93869	339.26950	-347.86017	283.56113	348.17398	-325.20190	247.28413	339.33511	-239.10928	129.56363	307.80063	-254.04581	141.47260	222.59181	-154.01527	112.39095	261.97430	-330.08005	40.62135	320.91315	-388.01126	56.28352	252.75621	-368.99722	42.39938	203.88368	-497.93420	1039.94299	192.18216	-683.06708	1010.45673	116.07214	-727.49536	728.07190	59.41533	-747.96399	686.80511	67.31297	-780.95856	750.32953	76.66342	-795.40387	704.83350	78.22308	-868.92084	509.63071	106.41048	-829.41779	504.44012	228.06889	-896.21210	299.60785	101.54132	-922.22552	263.43695	114.96282	-950.18604	330.18686	108.79716	-969.81403	287.52869	120.13755	-1016.97406	113.72746	151.90306	-1023.44434	147.45483	238.48076	-980.57538	44.39467	199.08914	-1171.86267	173.34793	243.87129	-1169.77832	200.08932	197.94089	-1153.77075	137.42213	133.09508
1014	4.05200	-492.56036	1045.15955	265.87830	-678.38831	995.64984	386.55145	-498.42703	708.95068	402.94641	-494.78833	666.22662	394.54419	-559.22540	697.63361	406.80515	-547.96008	655.26660	396.85101	-442.57880	505.37369	361.29749	-448.70651	510.73886	237.85437	-294.69922	312.65997	347.18491	-280.05679	272.15417	340.13892	-351.15506	283.92850	348.79437	-327.97696	247.80797	339.93961	-240.49286	131.03404	308.56757	-255.56970	142.96396	223.34657	-155.20303	114.93681	262.73401	-330.35193	40.60949	321.10999	-388.02234	56.27274	252.80589	-369.14890	42.51195	204.06589	-504.81946	1038.69043	192.22057	-690.15985	1009.70087	116.19031	-736.18335	727.95746	60.12164	-756.79883	686.83173	68.13202	-789.53320	750.39758	77.27307	-804.19708	705.02197	78.98596	-877.91071	509.66064	107.64069	-838.61670	505.14224	229.38710	-903.16101	299.32086	102.67587	-928.97821	262.68054	116.32739	-957.64807	329.22607	110.40990	-976.77417	286.35767	121.96180	-1022.14960	112.11655	153.92589	-1028.49487	145.75621	240.40128	-985.06549	43.00432	200.86037	-1176.92151	170.84607	246.52612	-1175.07275	197.73622	200.68990	-1158.93896	135.33458	135.66232
1015	4.05600	-499.45605	1043.88379	265.87680	-685.24921	994.41260	386.73828	-504.86240	708.15723	403.31351	-501.09735	665.46307	394.89511	-565.70221	696.59729	406.98877	-554.56854	654.05927	397.24524	-448.28909	504.72751	361.73239	-454.34860	510.05362	238.31337	-298.29514	313.63025	347.87457	-283.47906	273.11212	340.84668	-354.43848	284.21213	349.38565	-330.89090	248.41916	340.63602	-241.95660	132.52071	309.47720	-257.19662	144.51076	224.11314	-156.46095	117.56266	263.51797	-330.65244	40.59869	321.30197	-388.07770	56.29685	252.89565	-369.27664	42.66996	204.26871	-511.70734	1037.45166	192.29863	-697.12262	1008.91058	116.36174	-744.79279	727.85516	60.84789	-765.62360	686.81891	69.04922	-798.10022	750.50293	78.01333	-812.88629	705.12231	79.92011	-886.77759	509.56366	108.90710	-847.98401	505.75461	230.66458	-910.37268	298.58286	103.85659	-935.52869	261.85861	117.71671	-964.75745	328.15460	112.07758	-983.65106	285.13644	123.73911	-1026.79053	110.31310	155.94916	-1033.18494	143.87221	242.26157	-989.11249	41.46395	202.76602	-1181.52319	168.07353	249.03755	-1180.05676	194.99950	203.25793	-1163.75549	132.83232	138.14857
1016	4.06000	-506.39563	1042.71777	265.89496	-692.12317	993.16516	386.95441	-511.34390	707.44409	403.61227	-507.42383	664.73596	395.22269	-572.16553	695.77087	407.32468	-560.86682	653.12903	397.61780	-454.06879	504.10492	362.28674	-460.17801	509.35294	238.79434	-302.10416	314.57239	348.59976	-286.42502	274.41809	341.64621	-357.88730	284.62787	349.98120	-333.96674	248.92482	341.12579	-243.64104	134.03308	310.30844	-258.81378	146.18152	224.92567	-157.91133	120.30077	264.33905	-330.96088	40.63514	321.46762	-388.11130	56.32971	252.95280	-369.48010	42.80429	204.50079	-518.64313	1036.30200	192.46228	-704.31506	1008.12158	116.51095	-753.50751	727.72693	61.60688	-774.42651	686.83130	69.86810	-806.70532	750.59625	78.75314	-821.69348	705.26489	80.77142	-895.72375	509.32751	110.22276	-857.23419	506.21201	231.89479	-917.15149	297.89685	105.08926	-941.89368	260.92633	119.11128	-971.84827	326.92499	113.85088	-990.17059	283.73398	125.50259	-1031.33032	108.10133	158.16046	-1037.34900	141.90340	244.19943	-992.61261	39.88973	204.81628	-1185.92139	165.16486	251.32877	-1184.68652	192.03491	205.55725	-1168.42627	129.42131	141.25226
1017	4.06400	-513.42798	1041.51489	265.96213	-699.19159	991.91754	387.11362	-517.95648	706.62866	403.87421	-513.90656	663.96655	395.55063	-578.71692	694.77734	407.65720	-567.33228	652.28760	397.85837	-460.01657	503.40216	362.75204	-466.17960	508.60938	239.28455	-306.17001	315.44333	349.43762	-290.05380	275.56149	342.36877	-361.48145	284.92200	350.53220	-337.12335	249.50592	341.76129	-245.42001	135.65924	311.12943	-260.65875	147.81824	225.78535	-159.44550	123.20956	265.18155	-331.30206	40.71037	321.66400	-388.16772	56.37532	252.98865	-369.63321	42.96653	204.72978	-525.67944	1035.10181	192.55244	-711.57495	1007.39825	116.61415	-762.21649	727.58832	62.33179	-783.21423	686.81769	70.76847	-815.36005	750.60291	79.47134	-830.49927	705.35095	81.68597	-904.42755	508.92624	111.55836	-866.46301	506.66190	233.15276	-923.64923	297.10046	106.25303	-947.84894	259.91220	120.48781	-978.52911	325.56924	115.63935	-996.51056	282.18701	127.43420	-1035.29968	105.87774	160.25558	-1041.51270	139.88071	246.01106	-995.67743	38.21605	206.96429	-1190.01282	162.15732	253.55667	-1189.02722	188.86479	207.66609	-1172.49780	126.20056	143.51727
1018	4.06800	-520.52887	1040.30151	265.99567	-706.17670	990.67139	387.32690	-524.43243	705.94379	404.10141	-520.37866	663.18494	395.84888	-585.36395	693.80621	407.89175	-573.80432	651.43073	398.20688	-466.04904	502.77350	363.23767	-472.60336	507.72165	240.06116	-309.87222	316.59836	350.11401	-293.30869	276.90268	343.12064	-365.11533	285.36795	351.08856	-340.35217	250.19283	342.32144	-247.16348	137.34727	311.95999	-262.50571	149.56505	226.58574	-161.00754	126.19231	265.96378	-331.70584	40.74440	321.86276	-388.21588	56.44449	253.02133	-369.21283	43.72071	204.33652	-532.72809	1033.98999	192.71725	-718.96973	1006.66492	116.77127	-770.98718	727.41302	63.18191	-792.03387	686.69470	71.66870	-824.05823	750.63391	80.26340	-839.33759	705.32111	82.47817	-912.96631	508.35345	112.85781	-875.69000	506.87680	234.44939	-929.94159	296.17493	107.53934	-953.58441	258.76276	121.88666	-985.02991	324.11346	117.33701	-1000.95325	280.33673	129.01163	-1038.83044	103.53831	162.29108	-1043.77783	137.92914	249.77985	-998.55902	36.52049	209.20384	-1193.68359	158.85010	255.51599	-1193.21484	184.95480	210.44403	-1176.05688	122.63409	145.73665
